<mxfile host="app.diagrams.net" agent="Mozilla/5.0 (Macintosh; Intel Mac OS X 10_15_7) AppleWebKit/537.36 (KHTML, like Gecko) Chrome/135.0.0.0 Safari/537.36" version="26.2.15">
  <diagram name="Page-1" id="j0ic1Fvb6bwpyMrmvPhz">
    <mxGraphModel grid="1" page="1" gridSize="10" guides="1" tooltips="1" connect="1" arrows="1" fold="1" pageScale="1" pageWidth="850" pageHeight="1100" math="0" shadow="0">
      <root>
        <mxCell id="0" />
        <mxCell id="1" parent="0" />
        <mxCell id="YbKUc2a7RcO6E5X6qCrb-2" value="&lt;h1 style=&quot;margin-top: 0px;&quot;&gt;How it all works&lt;/h1&gt;&lt;p&gt;Camera is child of a pivot which rotates based on direction the character looks. Also child of pivot is a raycast3d, essentially a pointer which gives data on if an object collides with it, what that object is, collision point, etc. If raycast colliding with ball that is in air and left mouse button clicked, pick up function is run to give ball to player.&amp;nbsp;&lt;/p&gt;" style="text;html=1;whiteSpace=wrap;overflow=hidden;rounded=0;" vertex="1" parent="1">
          <mxGeometry y="100" width="360" height="260" as="geometry" />
        </mxCell>
        <mxCell id="376R351gDMJ_8M0VNkHW-1" style="edgeStyle=orthogonalEdgeStyle;rounded=0;orthogonalLoop=1;jettySize=auto;html=1;exitX=0.5;exitY=1;exitDx=0;exitDy=0;" edge="1" parent="1" source="YbKUc2a7RcO6E5X6qCrb-2" target="YbKUc2a7RcO6E5X6qCrb-2">
          <mxGeometry relative="1" as="geometry" />
        </mxCell>
        <mxCell id="376R351gDMJ_8M0VNkHW-16" style="edgeStyle=orthogonalEdgeStyle;rounded=0;orthogonalLoop=1;jettySize=auto;html=1;entryX=0.5;entryY=0;entryDx=0;entryDy=0;" edge="1" parent="1" source="376R351gDMJ_8M0VNkHW-10" target="376R351gDMJ_8M0VNkHW-12">
          <mxGeometry relative="1" as="geometry" />
        </mxCell>
        <mxCell id="376R351gDMJ_8M0VNkHW-10" value="" style="rounded=0;whiteSpace=wrap;html=1;" vertex="1" parent="1">
          <mxGeometry x="425" y="315" width="120" height="60" as="geometry" />
        </mxCell>
        <mxCell id="376R351gDMJ_8M0VNkHW-11" value="&lt;font style=&quot;font-size: 17px;&quot;&gt;Player Node&lt;/font&gt;" style="text;html=1;align=center;verticalAlign=middle;whiteSpace=wrap;rounded=0;" vertex="1" parent="1">
          <mxGeometry x="435" y="330" width="100" height="30" as="geometry" />
        </mxCell>
        <mxCell id="376R351gDMJ_8M0VNkHW-12" value="RayCast3d" style="swimlane;fontStyle=0;childLayout=stackLayout;horizontal=1;startSize=30;horizontalStack=0;resizeParent=1;resizeParentMax=0;resizeLast=0;collapsible=1;marginBottom=0;whiteSpace=wrap;html=1;" vertex="1" parent="1">
          <mxGeometry x="295" y="430" width="140" height="80" as="geometry" />
        </mxCell>
        <mxCell id="376R351gDMJ_8M0VNkHW-15" value="Fixed size pointing out of camera, returns object collided with" style="text;strokeColor=none;fillColor=none;align=left;verticalAlign=middle;spacingLeft=4;spacingRight=4;overflow=hidden;points=[[0,0.5],[1,0.5]];portConstraint=eastwest;rotatable=0;whiteSpace=wrap;html=1;" vertex="1" parent="376R351gDMJ_8M0VNkHW-12">
          <mxGeometry y="30" width="140" height="50" as="geometry" />
        </mxCell>
        <mxCell id="376R351gDMJ_8M0VNkHW-17" value="Player Script" style="swimlane;fontStyle=0;childLayout=stackLayout;horizontal=1;startSize=30;horizontalStack=0;resizeParent=1;resizeParentMax=0;resizeLast=0;collapsible=1;marginBottom=0;whiteSpace=wrap;html=1;" vertex="1" parent="1">
          <mxGeometry x="560" y="430" width="230" height="170" as="geometry" />
        </mxCell>
        <mxCell id="376R351gDMJ_8M0VNkHW-39" style="edgeStyle=orthogonalEdgeStyle;rounded=0;orthogonalLoop=1;jettySize=auto;html=1;" edge="1" parent="376R351gDMJ_8M0VNkHW-17" source="376R351gDMJ_8M0VNkHW-19">
          <mxGeometry relative="1" as="geometry">
            <mxPoint x="-120" y="50" as="targetPoint" />
          </mxGeometry>
        </mxCell>
        <mxCell id="376R351gDMJ_8M0VNkHW-19" value="Catch Func ()&lt;div&gt;&lt;span style=&quot;white-space: pre;&quot;&gt;&#x9;&lt;/span&gt;if raycast colliding ball &amp;amp; cooldown &lt;span style=&quot;white-space: pre;&quot;&gt;&#x9;&lt;/span&gt;&amp;amp; catchable&lt;br&gt;&lt;/div&gt;&lt;div&gt;&lt;span style=&quot;white-space: pre;&quot;&gt;&#x9;&lt;/span&gt;&lt;span style=&quot;white-space: pre;&quot;&gt;&#x9;&lt;/span&gt;pick up func&lt;/div&gt;&lt;div&gt;&lt;span style=&quot;white-space: pre;&quot;&gt;&#x9;&lt;/span&gt;&lt;span style=&quot;white-space: pre;&quot;&gt;&#x9;&lt;/span&gt;revive elimPlayers[0]&lt;br&gt;&lt;/div&gt;" style="text;strokeColor=none;fillColor=none;align=left;verticalAlign=middle;spacingLeft=4;spacingRight=4;overflow=hidden;points=[[0,0.5],[1,0.5]];portConstraint=eastwest;rotatable=0;whiteSpace=wrap;html=1;" vertex="1" parent="376R351gDMJ_8M0VNkHW-17">
          <mxGeometry y="30" width="230" height="80" as="geometry" />
        </mxCell>
        <mxCell id="376R351gDMJ_8M0VNkHW-20" value="Catch Cooldown - timer" style="text;strokeColor=none;fillColor=none;align=left;verticalAlign=middle;spacingLeft=4;spacingRight=4;overflow=hidden;points=[[0,0.5],[1,0.5]];portConstraint=eastwest;rotatable=0;whiteSpace=wrap;html=1;" vertex="1" parent="376R351gDMJ_8M0VNkHW-17">
          <mxGeometry y="110" width="230" height="60" as="geometry" />
        </mxCell>
        <mxCell id="376R351gDMJ_8M0VNkHW-21" style="edgeStyle=orthogonalEdgeStyle;rounded=0;orthogonalLoop=1;jettySize=auto;html=1;entryX=0.571;entryY=0;entryDx=0;entryDy=0;entryPerimeter=0;" edge="1" parent="1" target="376R351gDMJ_8M0VNkHW-17">
          <mxGeometry relative="1" as="geometry">
            <mxPoint x="485" y="400" as="sourcePoint" />
          </mxGeometry>
        </mxCell>
        <mxCell id="376R351gDMJ_8M0VNkHW-25" value="" style="rounded=0;whiteSpace=wrap;html=1;" vertex="1" parent="1">
          <mxGeometry x="130" y="450" width="120" height="60" as="geometry" />
        </mxCell>
        <mxCell id="376R351gDMJ_8M0VNkHW-26" value="&lt;font style=&quot;font-size: 17px;&quot;&gt;Ball Node&lt;/font&gt;" style="text;html=1;align=center;verticalAlign=middle;whiteSpace=wrap;rounded=0;" vertex="1" parent="1">
          <mxGeometry x="140" y="465" width="100" height="30" as="geometry" />
        </mxCell>
        <mxCell id="376R351gDMJ_8M0VNkHW-27" style="edgeStyle=orthogonalEdgeStyle;rounded=0;orthogonalLoop=1;jettySize=auto;html=1;entryX=1;entryY=0.5;entryDx=0;entryDy=0;" edge="1" parent="1" source="376R351gDMJ_8M0VNkHW-15" target="376R351gDMJ_8M0VNkHW-25">
          <mxGeometry relative="1" as="geometry" />
        </mxCell>
        <mxCell id="376R351gDMJ_8M0VNkHW-28" value="Game Manager" style="swimlane;fontStyle=0;childLayout=stackLayout;horizontal=1;startSize=30;horizontalStack=0;resizeParent=1;resizeParentMax=0;resizeLast=0;collapsible=1;marginBottom=0;whiteSpace=wrap;html=1;" vertex="1" parent="1">
          <mxGeometry x="620" y="310" width="140" height="60" as="geometry" />
        </mxCell>
        <mxCell id="376R351gDMJ_8M0VNkHW-29" value="Elim Players - array" style="text;strokeColor=none;fillColor=none;align=left;verticalAlign=middle;spacingLeft=4;spacingRight=4;overflow=hidden;points=[[0,0.5],[1,0.5]];portConstraint=eastwest;rotatable=0;whiteSpace=wrap;html=1;" vertex="1" parent="376R351gDMJ_8M0VNkHW-28">
          <mxGeometry y="30" width="140" height="30" as="geometry" />
        </mxCell>
        <mxCell id="376R351gDMJ_8M0VNkHW-32" style="edgeStyle=orthogonalEdgeStyle;rounded=0;orthogonalLoop=1;jettySize=auto;html=1;entryX=1;entryY=0.5;entryDx=0;entryDy=0;" edge="1" parent="1" source="376R351gDMJ_8M0VNkHW-19" target="376R351gDMJ_8M0VNkHW-29">
          <mxGeometry relative="1" as="geometry" />
        </mxCell>
        <mxCell id="376R351gDMJ_8M0VNkHW-33" value="Ball Node" style="swimlane;fontStyle=0;childLayout=stackLayout;horizontal=1;startSize=30;horizontalStack=0;resizeParent=1;resizeParentMax=0;resizeLast=0;collapsible=1;marginBottom=0;whiteSpace=wrap;html=1;" vertex="1" parent="1">
          <mxGeometry x="830" y="420" width="140" height="60" as="geometry" />
        </mxCell>
        <mxCell id="376R351gDMJ_8M0VNkHW-34" value="Catchable - bool" style="text;strokeColor=none;fillColor=none;align=left;verticalAlign=middle;spacingLeft=4;spacingRight=4;overflow=hidden;points=[[0,0.5],[1,0.5]];portConstraint=eastwest;rotatable=0;whiteSpace=wrap;html=1;" vertex="1" parent="376R351gDMJ_8M0VNkHW-33">
          <mxGeometry y="30" width="140" height="30" as="geometry" />
        </mxCell>
        <mxCell id="376R351gDMJ_8M0VNkHW-38" style="edgeStyle=orthogonalEdgeStyle;rounded=0;orthogonalLoop=1;jettySize=auto;html=1;entryX=0.5;entryY=1;entryDx=0;entryDy=0;entryPerimeter=0;" edge="1" parent="1" source="376R351gDMJ_8M0VNkHW-19" target="376R351gDMJ_8M0VNkHW-34">
          <mxGeometry relative="1" as="geometry" />
        </mxCell>
        <mxCell id="376R351gDMJ_8M0VNkHW-40" style="edgeStyle=orthogonalEdgeStyle;rounded=0;orthogonalLoop=1;jettySize=auto;html=1;entryX=0;entryY=0.5;entryDx=0;entryDy=0;" edge="1" parent="1" source="376R351gDMJ_8M0VNkHW-15" target="376R351gDMJ_8M0VNkHW-19">
          <mxGeometry relative="1" as="geometry">
            <Array as="points">
              <mxPoint x="500" y="480" />
              <mxPoint x="500" y="500" />
            </Array>
          </mxGeometry>
        </mxCell>
      </root>
    </mxGraphModel>
  </diagram>
</mxfile>
